<svg width="36" height="36" viewBox="0 0 36 36" fill="none" xmlns="http://www.w3.org/2000/svg">
<path fill-rule="evenodd" clip-rule="evenodd" d="M9.52826 18.4271C9.36248 13.7798 12.8942 9.871 17.4249 9.6875C21.9556 9.871 25.4874 13.7798 25.3216 18.4271C25.3216 20.3574 27.3665 22.2378 27.4264 24.1725C27.4264 24.1999 27.4264 24.2271 27.4264 24.2545C27.4707 25.494 26.5286 26.5364 25.3202 26.5849H20.7588C20.763 27.5346 20.4139 28.4504 19.7828 29.1454C19.1759 29.8213 18.3208 30.2059 17.4249 30.2059C16.5289 30.2059 15.674 29.8213 15.0671 29.1454C14.4359 28.4504 14.0868 27.5346 14.0911 26.5849H9.52826C8.31986 26.5364 7.37766 25.494 7.42191 24.2545C7.42191 24.2271 7.42191 24.1999 7.42191 24.1725C7.48336 22.2437 9.52826 20.3589 9.52826 18.4271Z" stroke="white" stroke-width="2.19847" stroke-linecap="round" stroke-linejoin="round"/>
<path d="M14.09 25.4849C13.4829 25.4849 12.9907 25.9771 12.9907 26.5842C12.9907 27.1912 13.4829 27.6834 14.09 27.6834V25.4849ZM20.7577 27.6834C21.3648 27.6834 21.8569 27.1912 21.8569 26.5842C21.8569 25.9771 21.3648 25.4849 20.7577 25.4849V27.6834ZM18.8528 7.85471C19.4599 7.85471 19.952 7.36257 19.952 6.75548C19.952 6.1484 19.4599 5.65625 18.8528 5.65625V7.85471ZM15.9948 5.65625C15.3877 5.65625 14.8956 6.1484 14.8956 6.75548C14.8956 7.36257 15.3877 7.85471 15.9948 7.85471V5.65625ZM14.09 27.6834H20.7577V25.4849H14.09V27.6834ZM18.8528 5.65625H15.9948V7.85471H18.8528V5.65625Z" fill="white"/>
</svg>
