<svg width="31" height="31" viewBox="0 0 31 31" fill="none" xmlns="http://www.w3.org/2000/svg">
<path d="M11.0055 29.3329C12.5209 29.3419 14.023 29.0501 15.4248 28.4743C16.8251 29.055 18.3282 29.347 19.844 29.3329C24.4464 29.3329 28.0512 26.877 28.0512 23.7406V18.5107C28.0512 15.3743 24.4464 12.9185 19.844 12.9185C19.6307 12.9185 19.4211 12.9286 19.2127 12.94V7.02573C19.2127 3.95371 15.6079 1.55469 11.0055 1.55469C6.40319 1.55469 2.79834 3.95371 2.79834 7.02573V23.8618C2.79834 26.9339 6.40319 29.3329 11.0055 29.3329ZM25.526 23.7406C25.526 25.1914 23.1926 26.8076 19.844 26.8076C16.4955 26.8076 14.1621 25.1914 14.1621 23.7406V22.5727C15.872 23.6126 17.8432 24.1431 19.844 24.1017C21.8449 24.1431 23.8161 23.6126 25.526 22.5727V23.7406ZM19.844 15.4438C23.1926 15.4438 25.526 17.06 25.526 18.5107C25.526 19.9615 23.1926 21.5765 19.844 21.5765C16.4955 21.5765 14.1621 19.9603 14.1621 18.5107C14.1621 17.0612 16.4955 15.4438 19.844 15.4438ZM11.0055 4.07998C14.3541 4.07998 16.6874 5.63303 16.6874 7.02573C16.6874 8.41843 14.3541 9.97274 11.0055 9.97274C7.657 9.97274 5.32363 8.41969 5.32363 7.02573C5.32363 5.63177 7.657 4.07998 11.0055 4.07998ZM5.32363 11.0018C7.04066 12.0215 9.00899 12.5398 11.0055 12.498C13.0021 12.5398 14.9704 12.0215 16.6874 11.0018V13.3352C15.3114 13.682 14.0494 14.3813 13.0258 15.3642C12.3619 15.5079 11.6848 15.5815 11.0055 15.5839C7.657 15.5839 5.32363 14.0309 5.32363 12.6382V11.0018ZM5.32363 16.6143C7.04102 17.6329 9.00918 18.1508 11.0055 18.1092C11.2303 18.1092 11.4475 18.0814 11.6684 18.0701C11.6496 18.2163 11.6391 18.3634 11.6369 18.5107V21.1434C11.4247 21.156 11.2202 21.1964 11.0055 21.1964C7.657 21.1964 5.32363 19.6433 5.32363 18.2494V16.6143ZM5.32363 22.2255C7.04066 23.2451 9.00899 23.7635 11.0055 23.7217C11.2177 23.7217 11.426 23.7053 11.6369 23.6952V23.7406C11.6549 24.8155 12.068 25.8461 12.7972 26.6359C12.2064 26.7474 11.6067 26.8049 11.0055 26.8076C7.657 26.8076 5.32363 25.2545 5.32363 23.8618V22.2255Z" fill="white"/>
</svg>
