<svg width="29" height="29" viewBox="0 0 29 29" fill="none" xmlns="http://www.w3.org/2000/svg">
<g clip-path="url(#clip0_194_1160)">
<path d="M0.566406 14.8124C0.566406 16.7259 0.941611 18.5456 1.69202 20.2716C2.44243 21.9975 3.43672 23.4984 4.6749 24.774C5.91307 26.0497 7.41389 27.0534 9.17735 27.7851C10.9408 28.5167 12.7606 28.8825 14.6366 28.8825C16.5126 28.8825 18.3323 28.5167 20.0958 27.7851C21.8593 27.0534 23.3601 26.0497 24.5983 24.774C25.8364 23.4984 26.8307 21.9975 27.5811 20.2716C28.3316 18.5456 28.7068 16.7259 28.7068 14.8124C28.7068 12.8988 28.3316 11.0791 27.5811 9.35313C26.8307 7.62719 25.8364 6.12637 24.5983 4.85068C23.3601 3.57498 21.8687 2.58069 20.1239 1.8678C18.3792 1.15491 16.5501 0.779708 14.6366 0.742188C12.723 0.742188 10.9033 1.11739 9.17735 1.8678C7.45141 2.61821 5.95059 3.6125 4.6749 4.85068C3.3992 6.08885 2.40491 7.58967 1.69202 9.35313C0.979131 11.1166 0.603927 12.9363 0.566406 14.8124ZM4.08395 14.8124C4.08395 12.5987 4.74056 10.5725 6.05377 8.73405L20.743 23.4233C18.8858 24.7178 16.8503 25.365 14.6366 25.365C12.723 25.365 10.9596 24.896 9.3462 23.958C7.73282 23.02 6.44774 21.7443 5.49097 20.1309C4.5342 18.5175 4.06519 16.7447 4.08395 14.8124ZM8.53013 6.22956C10.3874 4.91634 12.4229 4.25973 14.6366 4.25973C16.5501 4.25973 18.3136 4.73812 19.927 5.69489C21.5403 6.65166 22.8254 7.92736 23.7822 9.52198C24.739 11.1166 25.208 12.8801 25.1892 14.8124C25.1892 17.0448 24.5326 19.0803 23.2194 20.9188L8.53013 6.22956Z" fill="white"/>
</g>
<defs>
<clipPath id="clip0_194_1160">
<rect width="28.1404" height="28.1404" fill="white" transform="translate(0.564941 0.742188)"/>
</clipPath>
</defs>
</svg>
