<svg width="31" height="31" viewBox="0 0 31 31" fill="none" xmlns="http://www.w3.org/2000/svg">
<g clip-path="url(#clip0_194_1115)">
<path d="M27.4534 12.9248H23.0911V5.74C23.0911 5.20859 22.6603 4.77777 22.1289 4.77777H19.6912V1.69855C19.6912 1.16715 19.2604 0.736328 18.729 0.736328H11.9933C11.4619 0.736328 11.0311 1.16715 11.0311 1.69855V4.77777H8.65753C8.12613 4.77777 7.69531 5.20859 7.69531 5.74V12.9248H3.26886C2.73746 12.9248 2.30664 13.3556 2.30664 13.887V29.9244C2.30664 30.4558 2.73746 30.8866 3.26886 30.8866H27.4533C27.9847 30.8866 28.4155 30.4558 28.4155 29.9244V13.887C28.4156 13.3556 27.9848 12.9248 27.4534 12.9248ZM7.6952 28.9622H4.23114V17.5436H7.69526V28.9622H7.6952ZM7.6952 15.6191H4.23114V14.8493H7.69526V15.6191H7.6952ZM12.9555 2.66083H17.7667V4.77777H12.9555V2.66083ZM21.1666 28.9622H9.6197C9.6197 27.8807 9.6197 7.48695 9.6197 6.70227C9.92668 6.70227 20.9601 6.70227 21.1666 6.70227C21.1666 7.46905 21.1666 27.8317 21.1666 28.9622ZM26.5553 28.9622H23.0911V17.5436H26.5553V28.9622ZM26.5553 15.6191H23.0911V14.8493H26.5553V15.6191Z" fill="white"/>
<path d="M12.6531 8.65058C12.1622 8.70481 11.8003 9.13811 11.8003 9.63205V10.3674C11.8003 10.8613 12.1622 11.2947 12.6531 11.3489C13.2336 11.4129 13.7248 10.9602 13.7248 10.3926V9.60673C13.7248 9.03935 13.2336 8.58657 12.6531 8.65058Z" fill="white"/>
<path d="M17.9114 8.65058C17.4205 8.70481 17.0586 9.13811 17.0586 9.63205V10.3674C17.0586 10.8613 17.4205 11.2947 17.9114 11.3489C18.4919 11.4129 18.9831 10.9602 18.9831 10.3926V9.60673C18.9831 9.03935 18.4919 8.58657 17.9114 8.65058Z" fill="white"/>
<path d="M12.6531 13.8693C12.1622 13.9236 11.8003 14.3569 11.8003 14.8508V15.5861C11.8003 16.0801 12.1622 16.5134 12.6531 16.5676C13.2336 16.6316 13.7248 16.179 13.7248 15.6114V14.8255C13.7248 14.2581 13.2336 13.8053 12.6531 13.8693Z" fill="white"/>
<path d="M17.9114 13.8693C17.4205 13.9236 17.0586 14.3569 17.0586 14.8508V15.5861C17.0586 16.0801 17.4205 16.5134 17.9114 16.5676C18.4919 16.6316 18.9831 16.179 18.9831 15.6114V14.8255C18.9831 14.2581 18.4919 13.8053 17.9114 13.8693Z" fill="white"/>
<path d="M12.6531 19.0881C12.1622 19.1423 11.8003 19.5756 11.8003 20.0696V20.8049C11.8003 21.2988 12.1622 21.7322 12.6531 21.7864C13.2336 21.8504 13.7248 21.3977 13.7248 20.8302V20.0442C13.7248 19.4768 13.2336 19.024 12.6531 19.0881Z" fill="white"/>
<path d="M17.9114 19.0881C17.4205 19.1423 17.0586 19.5756 17.0586 20.0696V20.8049C17.0586 21.2988 17.4205 21.7322 17.9114 21.7864C18.4919 21.8504 18.9831 21.3977 18.9831 20.8302V20.0442C18.9831 19.4768 18.4919 19.024 17.9114 19.0881Z" fill="white"/>
<path d="M12.6531 24.3049C12.1622 24.3591 11.8003 24.7924 11.8003 25.2864V26.0217C11.8003 26.5156 12.1622 26.949 12.6531 27.0032C13.2336 27.0672 13.7248 26.6145 13.7248 26.0469V25.261C13.7248 24.6936 13.2336 24.2409 12.6531 24.3049Z" fill="white"/>
<path d="M17.9114 24.3049C17.4205 24.3591 17.0586 24.7924 17.0586 25.2864V26.0217C17.0586 26.5156 17.4205 26.949 17.9114 27.0032C18.4919 27.0672 18.9831 26.6145 18.9831 26.0469V25.261C18.9831 24.6936 18.4919 24.2409 17.9114 24.3049Z" fill="white"/>
</g>
<defs>
<clipPath id="clip0_194_1115">
<rect width="30.1504" height="30.1504" fill="white" transform="translate(0.286621 0.736328)"/>
</clipPath>
</defs>
</svg>
