<svg width="27" height="26" viewBox="0 0 27 26" fill="none" xmlns="http://www.w3.org/2000/svg">
<path d="M5.26223 6.66863L5.64062 6.29024L5.67713 6.25373L5.7167 6.2937L5.97075 6.04216L5.96759 6.67217L5.26223 6.66863ZM22.0108 5.41187L22.4785 4.94422C24.2832 6.95427 25.4311 9.56611 25.5843 12.4419H24.923C24.7712 9.74833 23.6969 7.30133 22.0108 5.41187ZM24.2826 18.6296L23.7102 18.2986C24.4045 16.9219 24.8315 15.3873 24.923 13.7625H25.5843C25.4913 15.5069 25.0323 17.1545 24.2826 18.6296ZM2.92421 3.62878L3.58449 3.62547L3.58475 3.67715L3.30614 3.95575L2.92775 4.33415L2.92421 3.62878ZM5.6975 4.39734L5.27393 3.96954C7.27761 2.18846 9.87205 1.05647 12.7261 0.9044V1.55987C10.1971 1.67781 7.70743 2.62324 5.6975 4.39734ZM14.0467 1.56569V0.911758C16.7259 1.0821 19.3672 2.13009 21.5026 4.05246L21.0771 4.47806C19.1876 2.7919 16.7404 1.71745 14.0467 1.56569ZM14.0467 25.3001V24.6388C15.6715 24.5473 17.2061 24.1203 18.5827 23.426L18.9138 23.9984C17.4387 24.7481 15.791 25.2071 14.0467 25.3001ZM12.7261 25.3001C6.5054 24.9687 1.51992 19.9833 1.18857 13.7625H1.84987C2.17977 19.6184 6.87018 24.3089 12.7261 24.6388V25.3001Z" fill="white" stroke="white" stroke-width="1.32058"/>
</svg>
