<svg width="28" height="28" viewBox="0 0 28 28" fill="none" xmlns="http://www.w3.org/2000/svg">
<g clip-path="url(#clip0_190_554)">
<path d="M16.7344 5.47344C17.4754 6.17603 18.0098 6.93501 18.4783 7.83922C18.533 7.94299 18.5877 8.04676 18.6441 8.15367C19.5592 10.0342 19.525 12.1763 18.8983 14.1392C18.4197 15.3712 17.7352 16.2956 16.7983 17.2192C16.6798 17.34 16.6798 17.34 16.5588 17.4631C15.2045 18.7382 13.3153 19.3135 11.4871 19.3717C8.95371 19.2916 7.02555 18.3304 5.31835 16.5192C3.94784 14.8769 3.41496 12.8028 3.51585 10.6917C3.74104 8.56152 4.74404 6.77333 6.29835 5.31922C9.45305 2.90707 13.6494 2.92394 16.7344 5.47344ZM10.0259 7.88297C9.75702 8.32758 9.65835 8.57731 9.65835 9.09922C9.84664 9.71436 10.0864 10.1203 10.6034 10.508C11.1766 10.6733 11.608 10.6721 12.1784 10.4992C12.5954 10.2454 12.8175 10.0389 13.0709 9.62422C13.192 9.09111 13.2074 8.63147 13.0183 8.11922C12.6486 7.65922 12.2293 7.36039 11.6883 7.13047C11.0045 7.14757 10.5095 7.41203 10.0259 7.88297ZM8.7221 12.7917C8.05044 13.5137 8.05044 13.5137 7.8296 14.4367C8.02271 14.9593 8.20485 15.1057 8.67835 15.3992C9.0919 15.4782 9.49648 15.4745 9.91648 15.4687C10.035 15.4689 10.1536 15.4691 10.2757 15.4693C10.5256 15.4691 10.7756 15.4674 11.0255 15.4645C11.4071 15.4605 11.7885 15.4617 12.1701 15.4635C12.4135 15.4626 12.6569 15.4614 12.9002 15.4599C13.0707 15.4605 13.0707 15.4605 13.2445 15.4612C13.885 15.4505 14.3241 15.4036 14.8384 14.9792C15.0263 14.4845 15.0549 14.1761 14.8422 13.6848C14.2756 12.7489 13.545 12.1157 12.4994 11.7762C11.0321 11.4499 9.84424 11.8001 8.7221 12.7917Z" fill="white"/>
<path d="M18.0673 2.47663C18.2521 2.62996 18.4358 2.78456 18.6185 2.94038C18.7299 3.02394 18.8412 3.10749 18.9559 3.19358C21.0032 4.92589 22.1668 7.58638 22.5035 10.2029C22.5181 10.3952 22.5299 10.5877 22.5385 10.7804C22.5441 10.8751 22.5497 10.9699 22.5555 11.0675C22.6302 13.4721 21.8497 15.693 20.7185 17.7804C21.0417 18.0771 21.0417 18.0771 21.4185 18.3404C21.842 18.2225 21.842 18.2225 22.2585 18.0604C22.982 18.2282 23.4246 18.7434 23.9309 19.252C24.0677 19.3878 24.0677 19.3878 24.2073 19.5263C24.3996 19.7177 24.5914 19.9096 24.7827 20.1021C25.0743 20.3949 25.3684 20.685 25.6628 20.9749C25.8498 21.1617 26.0367 21.3487 26.2234 21.5358C26.3109 21.6217 26.3984 21.7076 26.4885 21.7962C27.2571 22.5771 27.6384 23.2954 27.6398 24.4216C27.6137 25.3694 27.4423 26.0115 26.7877 26.7048C26.0675 27.3606 25.4393 27.6211 24.4548 27.6329C24.3052 27.6368 24.1555 27.6408 24.0014 27.6449C22.8918 27.4966 22.1413 26.8487 21.3753 26.0765C21.284 25.986 21.1927 25.8956 21.0986 25.8024C20.9075 25.6123 20.717 25.4214 20.5273 25.2298C20.2368 24.9374 19.9432 24.6486 19.6491 24.3598C19.4631 24.1739 19.2772 23.9878 19.0916 23.8015C19.0039 23.7157 18.9163 23.6299 18.826 23.5415C18.3371 23.042 18.078 22.7106 18.0585 21.9804C18.1198 21.5079 18.1198 21.5079 18.1985 21.1404C18.0137 21.0018 17.8289 20.8632 17.6385 20.7204C17.4301 20.8319 17.4301 20.8319 17.2174 20.9457C15.6165 21.7849 14.0128 22.4613 12.1785 22.5404C12.0679 22.5476 11.9573 22.5548 11.8433 22.5623C9.13729 22.6596 6.62518 21.7759 4.47851 20.1604C4.32827 20.0488 4.32827 20.0488 4.175 19.9351C2.11121 18.2709 0.873596 15.733 0.418515 13.1604C0.19345 9.96012 0.685769 6.87288 2.81273 4.35132C2.90044 4.25531 2.98815 4.1593 3.07851 4.06038C3.18355 3.94416 3.28858 3.82794 3.3968 3.70819C7.15512 -0.251682 13.7026 -0.879705 18.0673 2.47663ZM4.2893 4.23702C2.8107 5.76578 1.74154 7.68407 1.39851 9.80038C1.37722 9.93176 1.35592 10.0631 1.33398 10.1985C1.03154 12.6987 1.71531 15.4375 3.25105 17.446C5.08158 19.6676 7.37526 21.1018 10.2535 21.5254C10.4268 21.5369 10.6 21.5485 10.7785 21.5604C10.8774 21.5676 10.9763 21.5748 11.0782 21.5823C13.6251 21.6835 15.9533 20.759 17.9185 19.1804C18.034 19.0941 18.1495 19.0079 18.2685 18.919C18.67 18.5765 18.9914 18.1981 19.3098 17.7804C19.3705 17.7008 19.4312 17.6213 19.4938 17.5393C21.1407 15.3239 21.8175 12.6907 21.4668 9.94858C21.0234 7.30406 19.6017 4.80573 17.405 3.23296C17.0218 2.98402 16.6342 2.74889 16.2385 2.52038C16.1467 2.4657 16.0548 2.41102 15.9602 2.35468C12.1612 0.264006 7.2926 1.27093 4.2893 4.23702Z" fill="white"/>
</g>
<defs>
<clipPath id="clip0_190_554">
<rect width="28" height="28" fill="white"/>
</clipPath>
</defs>
</svg>
