<svg width="34" height="34" viewBox="0 0 34 34" fill="none" xmlns="http://www.w3.org/2000/svg">
<g clip-path="url(#clip0_190_547)">
<path d="M19.0586 7.50328C19.4767 7.72201 19.8178 8.03438 20.1473 8.36707C20.193 8.41232 20.2386 8.45757 20.2856 8.50419C20.4368 8.6545 20.5874 8.80551 20.7379 8.95653C20.8468 9.06503 20.9557 9.17348 21.0646 9.28189C21.3594 9.57545 21.6535 9.86964 21.9475 10.164C22.1932 10.4099 22.4392 10.6555 22.6852 10.9011C23.2987 11.5136 23.9115 12.1267 24.5241 12.7401C25.0555 13.2722 25.5877 13.8035 26.1202 14.3344C26.668 14.8805 27.2152 15.4271 27.7619 15.9742C28.0685 16.281 28.3752 16.5877 28.6825 16.8938C28.9713 17.1815 29.2594 17.4699 29.547 17.7588C29.6526 17.8646 29.7584 17.9702 29.8644 18.0755C30.0093 18.2195 30.1533 18.3643 30.2972 18.5093C30.3391 18.5507 30.3811 18.592 30.4243 18.6346C30.7501 18.9658 31.0449 19.3478 31.045 19.8327C31.0457 19.888 31.0463 19.9433 31.047 20.0002C31.0463 20.0589 31.0457 20.1177 31.045 20.1782C31.0456 20.2732 31.0456 20.2732 31.0461 20.3701C31.0469 20.5782 31.0459 20.7861 31.0447 20.9941C31.0447 21.1395 31.0448 21.2848 31.045 21.4302C31.045 21.7343 31.0442 22.0384 31.0427 22.3425C31.0408 22.7315 31.041 23.1204 31.0418 23.5094C31.0423 23.8094 31.0418 24.1094 31.041 24.4094C31.0407 24.5528 31.0406 24.6962 31.0409 24.8396C31.0411 25.0403 31.04 25.2409 31.0386 25.4417C31.039 25.5297 31.039 25.5297 31.0395 25.6196C31.0315 26.2912 30.7636 26.8481 30.3145 27.3421C29.4425 28.1269 28.6504 28.1388 27.5269 28.131C27.3823 28.131 27.2376 28.1312 27.0929 28.1315C26.791 28.1317 26.489 28.1307 26.1871 28.1289C25.8014 28.1266 25.4158 28.127 25.0301 28.1282C24.7318 28.1289 24.4335 28.1283 24.1352 28.1273C23.993 28.127 23.8509 28.127 23.7087 28.1274C23.5096 28.1278 23.3106 28.1264 23.1115 28.1246C23.0248 28.1253 23.0248 28.1253 22.9363 28.126C22.2286 28.1151 21.5455 27.7978 21.0523 27.29C20.5413 26.6735 20.3796 26.0267 20.3773 25.2347C20.3771 25.1909 20.3768 25.1471 20.3766 25.102C20.3761 25.0077 20.3758 24.9134 20.3755 24.8191C20.375 24.6694 20.374 24.5197 20.3728 24.37C20.3693 23.9446 20.3661 23.5192 20.3651 23.0938C20.3644 22.8327 20.3624 22.5717 20.3597 22.3107C20.3589 22.2118 20.3585 22.113 20.3587 22.0141C20.3595 21.2818 20.2798 20.7084 19.7691 20.1539C19.4549 19.8758 19.0792 19.7294 18.6602 19.722C18.1561 19.817 17.7149 20.0532 17.421 20.4796C17.1117 21.0462 17.0782 21.5536 17.0864 22.1832C17.0861 22.2844 17.0857 22.3856 17.0851 22.4867C17.0838 22.7511 17.0847 23.0153 17.0863 23.2797C17.0886 23.7025 17.0882 24.1253 17.0865 24.5482C17.0864 24.6943 17.0876 24.8403 17.0889 24.9864C17.0915 25.7951 16.9744 26.472 16.5352 27.1595C16.3516 27.0752 16.2128 26.9875 16.0676 26.8473C16.0302 26.8113 15.9928 26.7754 15.9542 26.7384C15.9147 26.6997 15.8752 26.6609 15.8345 26.621C15.7935 26.5809 15.7524 26.5407 15.7101 26.4994C15.6237 26.4145 15.5375 26.3294 15.4514 26.2442C15.3194 26.114 15.1859 25.9854 15.0523 25.8568C14.9685 25.7741 14.8847 25.6913 14.8011 25.6083C14.7609 25.5701 14.7207 25.5319 14.6793 25.4926C14.5757 25.3879 14.4869 25.2931 14.4102 25.1673C14.4161 24.8673 14.5275 24.6123 14.6343 24.3331C15.3722 22.298 15.2876 20.1067 14.4102 18.1283C13.9531 17.1651 13.349 16.3743 12.6172 15.6048C12.5777 15.5611 12.5383 15.5174 12.4976 15.4723C12.1472 15.0958 11.7153 14.825 11.2891 14.5423C11.3862 14.3188 11.5099 14.1717 11.6813 13.9995C11.7355 13.9448 11.7897 13.89 11.8455 13.8336C11.905 13.7741 11.9646 13.7147 12.0259 13.6534C12.0892 13.5897 12.1525 13.526 12.2157 13.4622C12.3875 13.2893 12.5597 13.1168 12.732 12.9444C12.8397 12.8366 12.9473 12.7287 13.0549 12.6207C13.4307 12.2437 13.8067 11.8671 14.1831 11.4908C14.5334 11.1406 14.883 10.7897 15.2322 10.4384C15.5324 10.1364 15.8331 9.83497 16.1343 9.53391C16.314 9.35427 16.4934 9.17444 16.6724 8.99409C16.8408 8.82431 17.01 8.65518 17.1796 8.48653C17.2709 8.39546 17.3615 8.30374 17.4521 8.21199C17.9113 7.75739 18.3786 7.36971 19.0586 7.50328Z" fill="white"/>
<path d="M11.5956 16.4567C12.8195 17.5684 13.674 19.2932 13.7543 20.9501C13.8123 22.6083 13.4287 23.9019 12.6838 25.3663C12.7353 25.4165 12.7353 25.4165 12.7879 25.4677C13.1133 25.7851 13.4376 26.1034 13.761 26.4228C13.9272 26.587 14.0937 26.7508 14.2612 26.9137C14.4542 27.1015 14.6455 27.2909 14.8368 27.4804C14.8964 27.538 14.9561 27.5956 15.0175 27.6549C15.4464 28.0836 15.7268 28.5015 15.7717 29.1183C15.7445 29.5981 15.5782 30.0106 15.228 30.3426C14.829 30.6571 14.3873 30.7997 13.8791 30.7452C12.8874 30.5722 12.0892 29.4279 11.4138 28.7489C11.3048 28.6396 11.1959 28.5304 11.0869 28.4211C10.8222 28.1556 10.5576 27.89 10.2932 27.6241C10.0333 27.7097 9.7774 27.8011 9.52237 27.9002C7.74431 28.5875 5.89636 28.6319 4.11738 27.8897C3.42787 27.5792 2.81421 27.2114 2.258 26.6944C2.19671 26.6385 2.13542 26.5825 2.07227 26.5248C0.854283 25.364 0.0354892 23.7291 -0.0156328 22.0343C-0.0480025 19.9644 0.454981 18.2514 1.89244 16.7038C4.57626 13.9355 8.7622 14.0535 11.5956 16.4567ZM3.32413 18.3656C2.45715 19.3876 2.05214 20.6086 2.13866 21.9451C2.25094 23.1695 2.84882 24.3204 3.77341 25.1323C4.88497 26.0001 6.10672 26.3626 7.5041 26.2296C8.80734 26.0598 9.80098 25.3613 10.6459 24.3868C11.4561 23.3235 11.7108 22.0156 11.5354 20.7054C11.3199 19.515 10.6517 18.4777 9.70562 17.7387C9.09692 17.3261 8.42727 17.0084 7.70332 16.8663C7.62662 16.8512 7.54992 16.8362 7.47089 16.8207C5.88633 16.6792 4.42234 17.199 3.32413 18.3656Z" fill="white"/>
<path d="M19.1665 3.16332C19.2988 3.25504 19.2988 3.25504 19.423 3.37018C19.4686 3.41223 19.5143 3.45427 19.5614 3.49758C19.7715 3.69876 19.9797 3.90136 20.1848 4.10765C20.2529 4.17576 20.2529 4.17576 20.3224 4.24524C20.4706 4.39347 20.6185 4.54194 20.7665 4.69041C20.8699 4.79397 20.9734 4.89753 21.0769 5.00107C21.3477 5.27221 21.6184 5.54354 21.8891 5.81492C22.1658 6.09238 22.4428 6.36964 22.7198 6.64693C23.2621 7.18997 23.8042 7.73322 24.3462 8.2766C24.3472 8.19822 24.3481 8.11984 24.3491 8.03909C24.353 7.74724 24.3581 7.45543 24.3636 7.16362C24.3658 7.03751 24.3677 6.9114 24.3692 6.78528C24.3714 6.6036 24.3749 6.42197 24.3786 6.24032C24.379 6.18427 24.3795 6.12822 24.3799 6.07048C24.3892 5.69418 24.2313 5.28554 24.4985 4.99927C24.8949 4.6962 25.3773 4.77294 25.8735 4.82348C26.1691 4.96859 26.4144 5.0947 26.5376 5.42113C26.6228 5.64689 26.5923 5.79287 26.5608 6.03858C26.2121 8.9337 26.2121 8.9337 27.2453 11.5532C27.5546 11.9403 27.8892 12.2983 28.2411 12.6467C28.2803 12.6855 28.3195 12.7243 28.3599 12.7643C28.8449 13.2403 29.349 13.6931 29.8619 14.1388C30.3035 14.5234 30.7307 14.9229 31.1575 15.3238C31.6787 15.8135 32.2015 16.3011 32.7355 16.7769C32.7727 16.8101 32.8099 16.8432 32.8482 16.8774C33.022 17.0322 33.1963 17.1864 33.3714 17.3398C33.4318 17.3933 33.4922 17.4469 33.5545 17.502C33.6072 17.5482 33.6598 17.5943 33.7141 17.6419C33.9427 17.8751 33.9954 18.0688 34 18.3911C33.9912 18.7565 33.9417 18.9492 33.7095 19.2336C33.3708 19.4854 33.061 19.546 32.647 19.4993C32.2444 19.3476 31.9853 19.0641 31.6889 18.7643C31.6335 18.7091 31.5781 18.6539 31.521 18.597C31.3678 18.4441 31.2151 18.2908 31.0626 18.1372C30.8978 17.9716 30.7325 17.8066 30.5672 17.6414C30.2811 17.3554 29.9954 17.0691 29.7099 16.7824C29.2971 16.368 28.8838 15.9542 28.4703 15.5405C27.7995 14.8692 27.1291 14.1975 26.459 13.5255C25.8081 12.8728 25.157 12.2203 24.5057 11.5681C24.4655 11.5279 24.4253 11.4877 24.384 11.4462C24.1825 11.2445 23.981 11.0428 23.7795 10.841C22.1084 9.16785 20.438 7.49394 18.7681 5.81957C18.6933 5.88337 18.6185 5.94722 18.5437 6.01109C18.5021 6.04664 18.4605 6.08219 18.4176 6.11882C18.2977 6.22279 18.184 6.33047 18.0731 6.44395C18.0351 6.48251 17.997 6.52107 17.9578 6.5608C17.8812 6.63914 17.8046 6.71748 17.728 6.79582C17.5358 6.99062 17.3413 7.17781 17.1329 7.3553C16.8087 7.63766 16.5062 7.93986 16.2029 8.24442C16.1413 8.30602 16.0796 8.36762 16.0162 8.43108C15.8488 8.59843 15.6817 8.76597 15.5145 8.93356C15.3393 9.10925 15.1638 9.28475 14.9884 9.46027C14.6569 9.79196 14.3255 10.1238 13.9943 10.4558C13.6169 10.8339 13.2392 11.2119 12.8616 11.5899C12.0854 12.3668 11.3095 13.1439 10.5337 13.9211C10.4812 13.9013 10.4812 13.9013 10.4276 13.881C10.2655 13.82 10.1032 13.7594 9.94096 13.6988C9.85836 13.6676 9.85836 13.6676 9.7741 13.6358C9.26161 13.4451 8.7427 13.3091 8.20947 13.1907C8.46584 12.8844 8.73124 12.5926 9.01365 12.3103C9.05249 12.2712 9.09133 12.2321 9.13134 12.1919C9.26025 12.0622 9.38939 11.9328 9.51853 11.8034C9.61151 11.71 9.70448 11.6166 9.79744 11.5232C10.1014 11.2178 10.4057 10.9128 10.7101 10.6078C10.815 10.5026 10.92 10.3974 11.0249 10.2921C11.5176 9.79821 12.0105 9.30443 12.5035 8.81084C13.0723 8.24135 13.6406 7.67132 14.2084 7.10081C14.6478 6.65944 15.0877 6.21857 15.528 5.77808C15.7908 5.51511 16.0534 5.25192 16.3154 4.9882C16.5616 4.74043 16.8085 4.4933 17.0558 4.24664C17.1465 4.15602 17.2369 4.06516 17.3271 3.97407C17.4502 3.84978 17.5741 3.72634 17.6983 3.60308C17.7515 3.54871 17.7515 3.54871 17.8059 3.49325C18.2103 3.09566 18.6307 3.01884 19.1665 3.16332Z" fill="white"/>
</g>
<defs>
<clipPath id="clip0_190_547">
<rect width="34" height="34" fill="white"/>
</clipPath>
</defs>
</svg>
