<svg width="15" height="18" viewBox="0 0 15 18" fill="none" xmlns="http://www.w3.org/2000/svg">
<g clip-path="url(#clip0_1_246)">
<path d="M7.66191 5.79841C7.6183 5.75669 7.56026 5.7334 7.4999 5.7334C7.43954 5.7334 7.38151 5.75669 7.33789 5.79841L1.94434 10.9509C1.92143 10.9728 1.90321 10.9991 1.89077 11.0282C1.87833 11.0574 1.87194 11.0888 1.87197 11.1205L1.87109 15.9562C1.87109 16.2049 1.96987 16.4433 2.14568 16.6191C2.3215 16.7949 2.55995 16.8937 2.80859 16.8937H5.62402C5.74834 16.8937 5.86757 16.8443 5.95548 16.7564C6.04339 16.6685 6.09277 16.5493 6.09277 16.425V12.4406C6.09277 12.3784 6.11747 12.3188 6.16142 12.2749C6.20537 12.2309 6.26499 12.2062 6.32715 12.2062H8.6709C8.73306 12.2062 8.79267 12.2309 8.83663 12.2749C8.88058 12.3188 8.90527 12.3784 8.90527 12.4406V16.425C8.90527 16.5493 8.95466 16.6685 9.04257 16.7564C9.13047 16.8443 9.2497 16.8937 9.37402 16.8937H12.1883C12.4369 16.8937 12.6754 16.7949 12.8512 16.6191C13.027 16.4433 13.1258 16.2049 13.1258 15.9562V11.1205C13.1258 11.0888 13.1194 11.0574 13.107 11.0282C13.0945 10.9991 13.0763 10.9728 13.0534 10.9509L7.66191 5.79841Z" fill="#28B446"/>
<path d="M14.3821 9.65527L12.1907 7.55879V4.37744C12.1907 4.25312 12.1413 4.13389 12.0534 4.04599C11.9655 3.95808 11.8463 3.90869 11.722 3.90869H10.3157C10.1914 3.90869 10.0722 3.95808 9.98428 4.04599C9.89637 4.13389 9.84698 4.25312 9.84698 4.37744V5.31494L8.15011 3.69248C7.99132 3.53193 7.75519 3.43994 7.50001 3.43994C7.24572 3.43994 7.01017 3.53193 6.85138 3.69277L0.619933 9.65469C0.437706 9.83047 0.414855 10.1196 0.580675 10.3101C0.622315 10.3581 0.673301 10.3972 0.730528 10.425C0.787756 10.4527 0.850029 10.4685 0.913558 10.4714C0.977087 10.4743 1.04054 10.4643 1.10006 10.4419C1.15958 10.4195 1.21392 10.3852 1.25978 10.3411L7.33888 4.53213C7.3825 4.4904 7.44053 4.46712 7.50089 4.46712C7.56125 4.46712 7.61929 4.4904 7.6629 4.53213L13.7426 10.3411C13.8321 10.427 13.9521 10.4739 14.0762 10.4715C14.2002 10.469 14.3183 10.4175 14.4044 10.3282C14.5843 10.1419 14.5693 9.83428 14.3821 9.65527Z" fill="#28B446"/>
</g>
<defs>
<clipPath id="clip0_1_246">
<rect width="15" height="18" fill="white"/>
</clipPath>
</defs>
</svg>
