<svg width="15" height="13" viewBox="0 0 15 13" fill="none" xmlns="http://www.w3.org/2000/svg">
<path d="M7.02494 0.549766L1.10327 5.88352C0.862437 6.09602 1.01119 6.49977 1.33702 6.49977H2.54119V11.4581C2.54119 11.8477 2.85994 12.1664 3.24952 12.1664H11.7495C12.1391 12.1664 12.4579 11.8477 12.4579 11.4581V6.49977H13.662C13.9879 6.49977 14.1437 6.09602 13.8958 5.88352L7.9741 0.549766C7.70494 0.308932 7.2941 0.308932 7.02494 0.549766ZM7.49952 9.3331C6.72035 9.3331 6.08285 8.6956 6.08285 7.91643C6.08285 7.36393 6.7841 6.1881 7.20202 5.53643C7.34369 5.31685 7.65535 5.31685 7.79702 5.53643C8.21494 6.1881 8.91619 7.36393 8.91619 7.91643C8.91619 8.6956 8.27869 9.3331 7.49952 9.3331Z" fill="#9965F4"/>
</svg>
