<svg width="30" height="30" viewBox="0 0 30 30" fill="none" xmlns="http://www.w3.org/2000/svg">
<path d="M28.75 8.125C28.75 4.32804 25.672 1.25 21.875 1.25C18.078 1.25 15 4.32804 15 8.125C15 11.922 18.078 15 21.875 15C25.672 15 28.75 11.922 28.75 8.125ZM22.5008 8.75001L22.5014 11.8794C22.5014 12.2246 22.2216 12.5044 21.8764 12.5044C21.5313 12.5044 21.2514 12.2246 21.2514 11.8794L21.2508 8.75001H18.1201C17.775 8.75001 17.4951 8.47019 17.4951 8.12501C17.4951 7.77984 17.775 7.50001 18.1201 7.50001H21.2506L21.25 4.37409C21.25 4.02891 21.5299 3.74909 21.875 3.74909C22.2201 3.74909 22.5 4.02891 22.5 4.37409L22.5006 7.50001H25.6287C25.974 7.50001 26.2537 7.77984 26.2537 8.12501C26.2537 8.47019 25.974 8.75001 25.6287 8.75001H22.5008Z" fill="white"/>
<path d="M24.375 24.684V15.8584C25.0419 15.643 25.671 15.3436 26.25 14.973V24.684C26.25 25.8921 25.2706 26.8715 24.0625 26.8715H19.6875C18.4794 26.8715 17.5 25.8921 17.5 24.684V17.809C17.5 17.6364 17.3601 17.4965 17.1875 17.4965H12.8125C12.6399 17.4965 12.5 17.6364 12.5 17.809V24.684C12.5 25.8921 11.5206 26.8715 10.3125 26.8715H5.9375C4.72938 26.8715 3.75 25.8921 3.75 24.684V12.4306C3.75 11.6016 4.11569 10.8149 4.7494 10.2805L13.1869 3.16536C13.9515 2.52055 14.9741 2.34649 15.8781 2.64316C15.3821 3.18535 14.9587 3.79501 14.6234 4.45677C14.5426 4.49217 14.4659 4.5395 14.3956 4.59874L5.95814 11.7139C5.7469 11.892 5.625 12.1542 5.625 12.4306V24.684C5.625 24.8566 5.76491 24.9965 5.9375 24.9965H10.3125C10.4851 24.9965 10.625 24.8566 10.625 24.684V17.809C10.625 16.6009 11.6044 15.6215 12.8125 15.6215H17.1875C18.3956 15.6215 19.375 16.6009 19.375 17.809V24.684C19.375 24.8566 19.5149 24.9965 19.6875 24.9965H24.0625C24.2351 24.9965 24.375 24.8566 24.375 24.684Z" fill="white"/>
</svg>
