<svg width="28" height="28" viewBox="0 0 28 28" fill="none" xmlns="http://www.w3.org/2000/svg">
<path fill-rule="evenodd" clip-rule="evenodd" d="M9.33244 1.75586C11.2057 1.75586 12.7244 3.27448 12.7244 5.14778V9.67033C12.7244 11.5436 11.2057 13.0623 9.33244 13.0623H4.80989C2.93659 13.0623 1.41797 11.5436 1.41797 9.67033V5.14778C1.41797 3.27448 2.93659 1.75586 4.80989 1.75586H9.33244ZM9.33244 4.01714C9.95687 4.01714 10.4631 4.52335 10.4631 5.14778V9.67033C10.4631 10.2948 9.95687 10.801 9.33244 10.801H4.80989C4.18546 10.801 3.67925 10.2948 3.67925 9.67033V5.14778C3.67925 4.52335 4.18546 4.01714 4.80989 4.01714H9.33244Z" fill="white"/>
<path fill-rule="evenodd" clip-rule="evenodd" d="M9.33244 15.3242C11.2057 15.3242 12.7244 16.8428 12.7244 18.7161V23.2387C12.7244 25.112 11.2057 26.6306 9.33244 26.6306H4.80989C2.93659 26.6306 1.41797 25.112 1.41797 23.2387V18.7161C1.41797 16.8428 2.93659 15.3242 4.80989 15.3242H9.33244ZM9.33244 17.5855C9.95687 17.5855 10.4631 18.0917 10.4631 18.7161V23.2387C10.4631 23.8631 9.95687 24.3693 9.33244 24.3693H4.80989C4.18546 24.3693 3.67925 23.8631 3.67925 23.2387V18.7161C3.67925 18.0917 4.18546 17.5855 4.80989 17.5855H9.33244Z" fill="white"/>
<path fill-rule="evenodd" clip-rule="evenodd" d="M26.2917 5.14778C26.2917 3.27448 24.7732 1.75586 22.8998 1.75586H18.3773C16.5039 1.75586 14.9854 3.27448 14.9854 5.14778V9.67033C14.9854 11.5436 16.5039 13.0623 18.3773 13.0623H22.8998C24.7732 13.0623 26.2917 11.5436 26.2917 9.67033V5.14778ZM24.0305 5.14778C24.0305 4.52335 23.5243 4.01714 22.8998 4.01714H18.3773C17.7528 4.01714 17.2466 4.52335 17.2466 5.14778V9.67033C17.2466 10.2948 17.7528 10.801 18.3773 10.801H22.8998C23.5243 10.801 24.0305 10.2948 24.0305 9.67033V5.14778Z" fill="white"/>
<path fill-rule="evenodd" clip-rule="evenodd" d="M22.8998 15.3242C24.7732 15.3242 26.2917 16.8428 26.2917 18.7161V23.2387C26.2917 25.112 24.7732 26.6306 22.8998 26.6306H18.3773C16.5039 26.6306 14.9854 25.112 14.9854 23.2387V18.7161C14.9854 16.8428 16.5039 15.3242 18.3773 15.3242H22.8998ZM22.8998 17.5855C23.5243 17.5855 24.0305 18.0917 24.0305 18.7161V23.2387C24.0305 23.8631 23.5243 24.3693 22.8998 24.3693H18.3773C17.7528 24.3693 17.2466 23.8631 17.2466 23.2387V18.7161C17.2466 18.0917 17.7528 17.5855 18.3773 17.5855H22.8998Z" fill="white"/>
</svg>
