<svg width="27" height="30" viewBox="0 0 27 30" fill="none" xmlns="http://www.w3.org/2000/svg">
<path d="M13.5217 6.91563C14.2118 6.89857 14.7575 6.32527 14.7405 5.63512C14.7233 4.94498 14.1502 4.39933 13.46 4.4164L13.5217 6.91563ZM4.51108 15.321H5.76108C5.76108 15.3117 5.76098 15.3023 5.76077 15.2928L4.51108 15.321ZM4.51108 19.1827L4.57625 20.431C5.24038 20.3963 5.76108 19.8477 5.76108 19.1827H4.51108ZM4.51108 24.3327L4.44592 25.581C4.46762 25.5822 4.48935 25.5827 4.51108 25.5827V24.3327ZM9.69972 25.5827C10.3901 25.5827 10.9497 25.023 10.9497 24.3327C10.9497 23.6424 10.3901 23.0827 9.69972 23.0827V25.5827ZM12.2408 5.66602C12.2408 6.35637 12.8005 6.91602 13.4908 6.91602C14.1812 6.91602 14.7408 6.35637 14.7408 5.66602H12.2408ZM14.7408 1.66602C14.7408 0.975666 14.1812 0.416016 13.4908 0.416016C12.8005 0.416016 12.2408 0.975666 12.2408 1.66602H14.7408ZM13.5217 4.4164C12.8317 4.39933 12.2583 4.94498 12.2412 5.63512C12.2242 6.32527 12.7698 6.89857 13.46 6.91563L13.5217 4.4164ZM22.4707 15.321L21.2208 15.2928C21.2207 15.3023 21.2207 15.3117 21.2207 15.321H22.4707ZM22.4707 19.1827H21.2207C21.2207 19.8477 21.7413 20.3963 22.4055 20.431L22.4707 19.1827ZM22.4707 24.3327V25.5827C22.4923 25.5827 22.514 25.5822 22.5358 25.581L22.4707 24.3327ZM17.282 23.0827C16.5917 23.0827 16.032 23.6424 16.032 24.3327C16.032 25.023 16.5917 25.5827 17.282 25.5827V23.0827ZM10.948 24.3372C10.9505 23.6468 10.3929 23.0852 9.70255 23.0827C9.0122 23.0802 8.45057 23.6378 8.4481 24.3282L10.948 24.3372ZM10.808 27.166L11.7203 26.3115L11.7182 26.3093L10.808 27.166ZM16.1705 27.166L15.2602 26.3093L15.2582 26.3115L16.1705 27.166ZM18.5303 24.3282C18.5278 23.6378 17.9662 23.0802 17.2758 23.0827C16.5855 23.0852 16.0278 23.6468 16.0303 24.3372L18.5303 24.3282ZM9.69647 23.0827C9.0061 23.0827 8.44647 23.6424 8.44647 24.3327C8.44647 25.023 9.0061 25.5827 9.69647 25.5827V23.0827ZM17.282 25.5827C17.9723 25.5827 18.532 25.023 18.532 24.3327C18.532 23.6424 17.9723 23.0827 17.282 23.0827V25.5827ZM13.46 4.4164C7.66333 4.55972 3.12942 9.48153 3.2614 15.3492L5.76077 15.2928C5.65843 10.7437 9.16225 7.02342 13.5217 6.91563L13.46 4.4164ZM3.26108 15.321V19.1827H5.76108V15.321H3.26108ZM4.44592 17.9343C2.4175 18.0403 0.875 19.7474 0.875 21.7577H3.375C3.375 21.022 3.93073 20.4647 4.57625 20.431L4.44592 17.9343ZM0.875 21.7577C0.875 23.768 2.4175 25.475 4.44592 25.581L4.57625 23.0844C3.93072 23.0507 3.375 22.4934 3.375 21.7577H0.875ZM4.51108 25.5827H9.69972V23.0827H4.51108V25.5827ZM14.7408 5.66602V1.66602H12.2408V5.66602H14.7408ZM13.46 6.91563C17.8195 7.02342 21.3232 10.7437 21.2208 15.2928L23.7203 15.3492C23.8523 9.48153 19.3183 4.55972 13.5217 4.4164L13.46 6.91563ZM21.2207 15.321V19.1827H23.7207V15.321H21.2207ZM22.4055 20.431C23.051 20.4647 23.6067 21.022 23.6067 21.7577H26.1067C26.1067 19.7474 24.5642 18.0403 22.5358 17.9343L22.4055 20.431ZM23.6067 21.7577C23.6067 22.4934 23.051 23.0507 22.4055 23.0844L22.5358 25.581C24.5642 25.475 26.1067 23.768 26.1067 21.7577H23.6067ZM22.4707 23.0827H17.282V25.5827H22.4707V23.0827ZM8.4481 24.3282C8.4432 25.7005 8.96 27.0263 9.89768 28.0227L11.7182 26.3093C11.225 25.7852 10.9455 25.0782 10.948 24.3372L8.4481 24.3282ZM9.89565 28.0205C10.8295 29.0175 12.1263 29.5875 13.4892 29.5875V27.0875C12.8282 27.0875 12.1887 26.8115 11.7203 26.3115L9.89565 28.0205ZM13.4892 29.5875C14.8522 29.5875 16.149 29.0175 17.0828 28.0205L15.2582 26.3115C14.7898 26.8115 14.1502 27.0875 13.4892 27.0875V29.5875ZM17.0807 28.0227C18.0185 27.0263 18.5352 25.7005 18.5303 24.3282L16.0303 24.3372C16.033 25.0782 15.7535 25.7852 15.2602 26.3093L17.0807 28.0227ZM9.69647 25.5827H17.282V23.0827H9.69647V25.5827Z" fill="white"/>
</svg>
