<svg width="26" height="29" viewBox="0 0 26 29" fill="none" xmlns="http://www.w3.org/2000/svg">
<path fill-rule="evenodd" clip-rule="evenodd" d="M6.28054 3.50608C6.15328 3.37931 6.06252 3.22059 6.01779 3.04662C5.97307 2.87264 5.97603 2.68984 6.02637 2.5174C6.07671 2.34497 6.17256 2.18928 6.30386 2.06669C6.43516 1.9441 6.59706 1.85915 6.77254 1.82075L13.1285 0.427416C13.2923 0.391568 13.4625 0.397487 13.6235 0.444628C13.7844 0.49177 13.9309 0.57862 14.0494 0.69719C14.168 0.81576 14.2549 0.962243 14.302 1.12316C14.3491 1.28408 14.3551 1.45428 14.3192 1.61808L12.9245 7.97408C12.886 8.14914 12.8012 8.31063 12.6789 8.44165C12.5565 8.57267 12.4012 8.6684 12.2292 8.71883C12.0572 8.76926 11.8748 8.77253 11.7011 8.7283C11.5274 8.68407 11.3688 8.59397 11.2419 8.46742L6.27921 3.50475L6.28054 3.50608ZM15.2632 28.1261C16.3594 28.1261 17.4108 27.6906 18.1859 26.9155C18.9611 26.1403 19.3965 25.089 19.3965 23.9928C19.3965 22.8965 18.9611 21.8452 18.1859 21.07C17.4108 20.2949 16.3594 19.8594 15.2632 19.8594C14.167 19.8594 13.1156 20.2949 12.3405 21.07C11.5653 21.8452 11.1299 22.8965 11.1299 23.9928C11.1299 25.089 11.5653 26.1403 12.3405 26.9155C13.1156 27.6906 14.167 28.1261 15.2632 28.1261ZM6.87654 7.87008C6.6265 7.62012 6.28742 7.4797 5.93387 7.4797C5.58032 7.4797 5.24124 7.62012 4.99121 7.87008L1.92054 10.9394C1.39479 11.4651 0.977733 12.0892 0.693195 12.7761C0.408657 13.463 0.262207 14.1993 0.262207 14.9427C0.262207 15.6862 0.408657 16.4225 0.693195 17.1094C0.977733 17.7963 1.39479 18.4204 1.92054 18.9461L1.92587 18.9501C2.98961 20.0111 4.43093 20.6066 5.93337 20.6059C7.4358 20.6051 8.87653 20.0082 9.93921 18.9461L17.9459 10.9394C19.1192 9.76608 21.0192 9.76608 22.1925 10.9367C23.3632 12.1047 23.3645 14.0007 22.1965 15.1714L22.1939 15.1727L19.8339 17.5327C19.5837 17.7828 19.4431 18.1219 19.4429 18.4756C19.4428 18.8293 19.5832 19.1686 19.8332 19.4187C20.0832 19.6689 20.4224 19.8096 20.7761 19.8097C21.1298 19.8098 21.469 19.6694 21.7192 19.4194L24.0792 17.0594L24.0845 17.0541C25.1447 15.9912 25.7393 14.5507 25.7375 13.0495C25.7358 11.5482 25.1378 10.1092 24.0752 9.04875C23.0115 7.98772 21.5701 7.3922 20.0677 7.39295C18.5653 7.3937 17.1245 7.99066 16.0619 9.05275L8.05387 17.0594C6.88187 18.2327 4.98187 18.2327 3.80721 17.0594C3.24614 16.4979 2.93097 15.7366 2.93097 14.9427C2.93097 14.1489 3.24614 13.3876 3.80721 12.8261L6.87654 9.75542C7.1265 9.50538 7.26692 9.1663 7.26692 8.81275C7.26692 8.4592 7.1265 8.12012 6.87654 7.87008Z" fill="white"/>
</svg>
