<svg width="27" height="27" viewBox="0 0 27 27" fill="none" xmlns="http://www.w3.org/2000/svg">
<path d="M5.75 25.125C7.6875 23.0583 9.625 21.2078 9.625 18.925C9.625 16.6422 7.8901 14.7917 5.75 14.7917C3.6099 14.7917 1.875 16.6422 1.875 18.925C1.875 21.2078 3.8125 23.0583 5.75 25.125ZM5.75 25.125H20.6042C22.3876 25.125 23.8333 23.6792 23.8333 21.8958C23.8333 20.1124 22.3876 18.6667 20.6042 18.6667H17.375M21.25 12.2083C23.1875 10.1417 25.125 8.29111 25.125 6.00833C25.125 3.72556 23.3902 1.875 21.25 1.875C19.1098 1.875 17.375 3.72556 17.375 6.00833C17.375 8.29111 19.3125 10.1417 21.25 12.2083ZM21.25 12.2083H16.7292C14.9458 12.2083 13.5 13.6541 13.5 15.4375C13.5 17.2209 14.9458 18.6667 16.7292 18.6667H18.15" stroke="white" stroke-width="2.58333" stroke-linecap="round" stroke-linejoin="round"/>
</svg>
