<svg width="29" height="29" viewBox="0 0 29 29" fill="none" xmlns="http://www.w3.org/2000/svg">
<path fill-rule="evenodd" clip-rule="evenodd" d="M5.78125 18.3887C3.11457 18.3887 0.9375 20.5657 0.9375 23.2324C0.9375 25.8991 3.11457 28.0762 5.78125 28.0762H19.3438C22.0104 28.0762 24.1875 25.8991 24.1875 23.2324C24.1875 20.5657 22.0104 18.3887 19.3438 18.3887H5.78125ZM5.78125 20.3262H19.3438C20.9706 20.3262 22.25 21.6056 22.25 23.2324C22.25 24.8592 20.9706 26.1387 19.3438 26.1387H5.78125C4.15443 26.1387 2.875 24.8592 2.875 23.2324C2.875 21.6056 4.15443 20.3262 5.78125 20.3262Z" fill="white"/>
<path fill-rule="evenodd" clip-rule="evenodd" d="M21.2812 9.66992C21.0243 9.66992 20.7779 9.77197 20.5962 9.95365C20.4146 10.1353 20.3125 10.3817 20.3125 10.6387C20.3125 10.8956 20.4146 11.142 20.5962 11.3237C20.7779 11.5053 21.0243 11.6074 21.2812 11.6074C21.5382 11.6074 21.7846 11.5053 21.9663 11.3237C22.1479 11.142 22.25 10.8956 22.25 10.6387C22.25 10.3817 22.1479 10.1353 21.9663 9.95365C21.7846 9.77197 21.5382 9.66992 21.2812 9.66992Z" fill="white"/>
<path fill-rule="evenodd" clip-rule="evenodd" d="M21.2812 3.85742C21.0243 3.85742 20.7779 3.95947 20.5962 4.14115C20.4146 4.32282 20.3125 4.56924 20.3125 4.82617V7.73242C20.3125 7.98935 20.4146 8.23574 20.5962 8.41742C20.7779 8.59909 21.0243 8.70117 21.2812 8.70117C21.5382 8.70117 21.7846 8.59909 21.9663 8.41742C22.1479 8.23574 22.25 7.98935 22.25 7.73242V4.82617C22.25 4.56924 22.1479 4.32282 21.9663 4.14115C21.7846 3.95947 21.5382 3.85742 21.2812 3.85742Z" fill="white"/>
<path fill-rule="evenodd" clip-rule="evenodd" d="M21.2812 0.951172C18.7331 0.951172 16.506 2.37079 15.3477 4.45911C14.4756 4.06638 13.5274 3.8573 12.5625 3.85742C8.82879 3.85742 5.78125 6.90497 5.78125 10.6387C5.78125 14.3724 8.82879 17.4199 12.5625 17.4199C12.5631 17.4199 12.5638 17.4199 12.5644 17.4199C15.0555 17.4131 17.3141 16.0405 18.4886 13.9082C19.3414 14.2963 20.2864 14.5137 21.2813 14.5137C25.015 14.5137 28.0625 11.4661 28.0625 7.73242C28.0625 3.99873 25.0149 0.951172 21.2812 0.951172ZM21.2812 2.88867C23.9679 2.88867 26.125 5.04583 26.125 7.73242C26.125 10.419 23.9679 12.5762 21.2812 12.5762C20.3278 12.5762 19.4421 12.3032 18.6948 11.8326C18.6237 11.7674 18.5434 11.7132 18.4564 11.6718C17.2324 10.795 16.4375 9.36198 16.4375 7.73242C16.4375 7.22509 16.516 6.73601 16.6589 6.2774C16.7083 6.18636 16.7428 6.08799 16.761 5.98602C17.458 4.16956 19.2114 2.88867 21.2812 2.88867ZM12.5625 5.79492C13.2922 5.79483 14.0087 5.96005 14.6608 6.27362C14.557 6.74377 14.5 7.23193 14.5 7.73242C14.5 9.77503 15.4143 11.611 16.8519 12.8562C16.0333 14.4488 14.3922 15.4767 12.5625 15.4824C9.8759 15.4824 7.71875 13.3253 7.71875 10.6387C7.71875 7.95208 9.8759 5.79492 12.5625 5.79492Z" fill="white"/>
</svg>
