<svg width="17" height="17" viewBox="0 0 17 17" fill="none" xmlns="http://www.w3.org/2000/svg">
<path d="M3.27319 3.19812C3.40211 2.68246 3.46657 2.42533 3.65853 2.27517C3.85119 2.125 4.11682 2.125 4.64807 2.125H12.3519C12.8832 2.125 13.1488 2.125 13.3414 2.27517C13.5327 2.42533 13.5979 2.68246 13.7268 3.19812L14.5789 6.60804C14.6476 6.88288 14.6823 7.01958 14.6745 7.1315C14.6648 7.27264 14.6131 7.40765 14.526 7.51912C14.4389 7.6306 14.3204 7.71343 14.1858 7.75696C14.0795 7.79167 13.935 7.79167 13.6453 7.79167C13.2678 7.79167 13.0787 7.79167 12.9207 7.75483C12.7017 7.70382 12.498 7.60141 12.3264 7.45607C12.1548 7.31073 12.0203 7.12663 11.934 6.919C11.8709 6.76883 11.8405 6.58608 11.7803 6.22271C11.7633 6.12071 11.7548 6.06971 11.7449 6.05625C11.7383 6.04718 11.7297 6.0398 11.7197 6.0347C11.7097 6.02961 11.6987 6.02696 11.6875 6.02696C11.6763 6.02696 11.6652 6.02961 11.6553 6.0347C11.6453 6.0398 11.6367 6.04718 11.6301 6.05625C11.6202 6.06971 11.6117 6.12 11.5947 6.22271L11.5373 6.56908C11.4913 6.90258 11.328 7.20877 11.0767 7.4328C10.8254 7.65684 10.5026 7.78406 10.166 7.79167H10.0215C9.68492 7.78406 9.36206 7.65684 9.11077 7.4328C8.85948 7.20877 8.69619 6.90258 8.65015 6.56908L8.59278 6.222C8.57578 6.12071 8.56728 6.06971 8.55736 6.05625C8.55079 6.04718 8.54217 6.0398 8.5322 6.0347C8.52222 6.02961 8.51118 6.02696 8.49999 6.02696C8.48879 6.02696 8.47775 6.02961 8.46777 6.0347C8.4578 6.0398 8.44918 6.04718 8.44261 6.05625C8.43269 6.06971 8.42419 6.12 8.40719 6.22271L8.34982 6.56908C8.30378 6.90258 8.14049 7.20877 7.8892 7.4328C7.63791 7.65684 7.31505 7.78406 6.97849 7.79167H6.83399C6.50994 7.78408 6.1983 7.6656 5.95106 7.456C5.70382 7.2464 5.53593 6.95835 5.4754 6.63992C5.47029 6.61647 5.46603 6.59284 5.46265 6.56908L5.40528 6.222C5.38828 6.12071 5.37978 6.06971 5.36986 6.05625C5.36329 6.04718 5.35467 6.0398 5.3447 6.0347C5.33472 6.02961 5.32368 6.02696 5.31249 6.02696C5.30129 6.02696 5.29025 6.02961 5.28028 6.0347C5.2703 6.0398 5.26168 6.04718 5.25511 6.05625C5.24519 6.06971 5.23669 6.12 5.21969 6.22271C5.15949 6.58679 5.12903 6.76812 5.06599 6.919C4.97972 7.12655 4.84532 7.31059 4.67387 7.45593C4.50242 7.60126 4.29886 7.70372 4.07999 7.75483C3.92132 7.79167 3.7329 7.79167 3.35465 7.79167C3.06494 7.79167 2.92044 7.79167 2.81419 7.75696C2.67958 7.71343 2.56109 7.6306 2.47398 7.51912C2.38687 7.40765 2.33513 7.27264 2.32544 7.1315C2.31836 7.01958 2.35236 6.88288 2.42107 6.60804L3.27319 3.19812Z" fill="#9747FF"/>
<path fill-rule="evenodd" clip-rule="evenodd" d="M3.55373 8.85416C3.54169 9.15237 3.54169 9.50228 3.54169 9.91666V14.1667C3.54169 14.8346 3.54169 15.1682 3.74923 15.3758C3.95677 15.5833 4.2904 15.5833 4.95835 15.5833H7.08335V12.75C7.08335 12.5621 7.15798 12.382 7.29082 12.2491C7.42366 12.1163 7.60383 12.0417 7.79169 12.0417H9.20835C9.39622 12.0417 9.57638 12.1163 9.70922 12.2491C9.84206 12.382 9.91669 12.5621 9.91669 12.75V15.5833H12.0417C12.7096 15.5833 13.0433 15.5833 13.2508 15.3758C13.4584 15.1682 13.4584 14.8346 13.4584 14.1667V9.91666C13.4584 9.50228 13.4584 9.15237 13.4463 8.85416C13.1878 8.85416 12.9236 8.84637 12.6792 8.7897C12.3165 8.70521 11.9776 8.54009 11.6875 8.30662C11.2739 8.63953 10.7525 8.8407 10.1908 8.85345L10.1016 8.85416H9.99673C9.45101 8.84152 8.92479 8.64876 8.50002 8.30591C8.08635 8.63882 7.56502 8.83999 7.00331 8.85274L6.91406 8.85345H6.80923C6.26359 8.84101 5.73738 8.6485 5.31252 8.30591C5.02635 8.53612 4.68919 8.70257 4.32085 8.78899C4.07648 8.84566 3.81227 8.85274 3.55373 8.85345" fill="#9747FF"/>
</svg>
