<svg width="25" height="27" viewBox="0 0 25 27" fill="none" xmlns="http://www.w3.org/2000/svg">
<path fill-rule="evenodd" clip-rule="evenodd" d="M17.2838 7.36362C17.2838 4.65625 15.0363 2.45453 12.2727 2.45453C9.5091 2.45453 7.26162 4.65625 7.26162 7.36362C7.26162 10.071 9.5091 12.2727 12.2727 12.2727C15.0363 12.2727 17.2838 10.071 17.2838 7.36362ZM22.0243 24.5454H19.7894C19.0978 24.5454 18.5366 23.9956 18.5366 23.3182C18.5366 22.6407 19.0978 22.0909 19.7894 22.0909H20.3268C21.1937 22.0909 21.8339 21.2355 21.5057 20.4488C19.9886 16.8111 16.4257 14.7273 12.2727 14.7273C8.11977 14.7273 4.55687 16.8111 3.03976 20.4488C2.71153 21.2355 3.3517 22.0909 4.21863 22.0909H4.75607C5.4476 22.0909 6.00884 22.6407 6.00884 23.3182C6.00884 23.9956 5.4476 24.5454 4.75607 24.5454H2.52111C0.955142 24.5454 -0.277587 23.1426 0.0543989 21.6441C0.96642 17.5217 3.81398 14.4793 7.56479 13.0986C5.8535 11.7499 4.75607 9.68316 4.75607 7.36362C4.75607 3.00557 8.61963 -0.467619 13.1735 0.051517C16.4733 0.427062 19.2068 3.00305 19.7017 6.22219C20.1276 8.99705 18.9688 11.5314 16.9807 13.0986C20.7315 14.4793 23.579 17.5217 24.491 21.6441C24.823 23.1426 23.5903 24.5454 22.0243 24.5454ZM16.0311 23.3182C16.0311 23.9956 15.4698 24.5454 14.7783 24.5454H13.7811C13.7811 25.7727 13.9114 27 12.5283 27C11.8355 27 11.2755 26.4502 11.2755 25.7727V24.5454H9.76717C9.07564 24.5454 8.51439 23.9956 8.51439 23.3182C8.51439 22.6407 9.07564 22.0909 9.76717 22.0909H11.2755V20.8636C11.2755 20.1862 11.8355 19.6363 12.5283 19.6363C13.2198 19.6363 13.7811 20.1862 13.7811 20.8636V22.0909H14.7783C15.4698 22.0909 16.0311 22.6407 16.0311 23.3182Z" fill="white"/>
</svg>
