<svg width="30" height="30" viewBox="0 0 30 30" fill="none" xmlns="http://www.w3.org/2000/svg">
<g clip-path="url(#clip0_194_1081)">
<path d="M22.7209 16.9041C21.7664 18.8386 20.473 20.7659 19.1506 22.4964C17.896 24.1278 16.5546 25.6906 15.1321 27.1779C13.7096 25.6906 12.3682 24.1278 11.1137 22.4964C9.79126 20.7659 8.49793 18.8386 7.54342 16.9041C6.57798 14.9496 6.02422 13.1189 6.02422 11.5487C6.02422 9.13308 6.9838 6.81644 8.69187 5.10838C10.3999 3.40031 12.7166 2.44073 15.1321 2.44073C17.5477 2.44073 19.8644 3.40031 21.5724 5.10838C23.2805 6.81644 24.2401 9.13308 24.2401 11.5487C24.2401 13.1189 23.6845 14.9496 22.7209 16.9041ZM15.1321 29.7645C15.1321 29.7645 26.0617 19.407 26.0617 11.5487C26.0617 8.64997 24.9102 5.87 22.8605 3.82032C20.8108 1.77064 18.0308 0.619141 15.1321 0.619141C12.2335 0.619141 9.4535 1.77064 7.40382 3.82032C5.35414 5.87 4.20264 8.64997 4.20264 11.5487C4.20264 19.407 15.1321 29.7645 15.1321 29.7645Z" fill="white"/>
<path d="M15.1322 15.1919C14.166 15.1919 13.2394 14.8081 12.5561 14.1249C11.8729 13.4416 11.4891 12.515 11.4891 11.5487C11.4891 10.5825 11.8729 9.65586 12.5561 8.97263C13.2394 8.2894 14.166 7.90557 15.1322 7.90557C16.0985 7.90557 17.0251 8.2894 17.7083 8.97263C18.3916 9.65586 18.7754 10.5825 18.7754 11.5487C18.7754 12.515 18.3916 13.4416 17.7083 14.1249C17.0251 14.8081 16.0985 15.1919 15.1322 15.1919ZM15.1322 17.0135C16.5816 17.0135 17.9716 16.4377 18.9964 15.4129C20.0212 14.3881 20.597 12.9981 20.597 11.5487C20.597 10.0994 20.0212 8.70941 18.9964 7.68457C17.9716 6.65973 16.5816 6.08398 15.1322 6.08398C13.6829 6.08398 12.2929 6.65973 11.2681 7.68457C10.2432 8.70941 9.66748 10.0994 9.66748 11.5487C9.66748 12.9981 10.2432 14.3881 11.2681 15.4129C12.2929 16.4377 13.6829 17.0135 15.1322 17.0135Z" fill="white"/>
</g>
<defs>
<clipPath id="clip0_194_1081">
<rect width="29.1454" height="29.1454" fill="white" transform="translate(0.559082 0.619141)"/>
</clipPath>
</defs>
</svg>
