<svg width="96" height="96" viewBox="0 0 96 96" fill="none" xmlns="http://www.w3.org/2000/svg">
<g clip-path="url(#clip0_3025_4105)">
<path fill-rule="evenodd" clip-rule="evenodd" d="M63.4805 23.8052C56.9071 23.8052 51.5779 29.1342 51.5779 35.7078C51.5779 42.2816 56.9071 47.6104 63.4805 47.6104C70.0543 47.6104 75.383 42.2816 75.383 35.7078C75.383 29.1342 70.0543 23.8052 63.4805 23.8052ZM43.6428 35.7078C43.6428 24.7517 52.5245 15.8701 63.4805 15.8701C74.4364 15.8701 83.3181 24.7517 83.3181 35.7078C83.3181 40.9421 81.2907 45.7032 77.9786 49.2481C85.2824 51.6271 90.9262 56.3361 94.5319 61.6272C95.7658 63.438 95.2981 65.9062 93.4873 67.1401C91.6769 68.374 89.2083 67.9062 87.9744 66.0955C84.1033 60.4148 77.0407 55.5454 67.448 55.5454C52.2365 55.5454 43.6428 67.7424 43.6428 75.3831C43.6428 77.5743 41.8666 79.3506 39.6753 79.3506C37.4841 79.3506 35.7078 77.5743 35.7078 75.3831C35.7078 72.6375 36.3365 69.7095 37.5361 66.8231C37.2305 66.6271 36.9468 66.3859 36.6952 66.0998C33.4385 62.3942 28.3844 59.5129 21.8214 59.5129C15.2585 59.5129 10.2044 62.3942 6.9477 66.0998C5.50118 67.7456 2.99426 67.907 1.34838 66.4605C-0.297489 65.0139 -0.45908 62.5072 0.987462 60.8611C3.20987 58.3326 6.02207 56.0866 9.35246 54.4373C6.03021 51.195 3.96757 46.6681 3.96757 41.6591C3.96757 31.7986 11.961 23.8052 21.8214 23.8052C31.6819 23.8052 39.6753 31.7986 39.6753 41.6591C39.6753 46.6681 37.6127 51.195 34.2905 54.4373C37.1566 55.8569 39.639 57.718 41.692 59.8212C44.2459 56.6004 47.5651 53.7132 51.5469 51.5561C46.7462 47.9353 43.6428 42.184 43.6428 35.7078ZM11.9026 41.6591C11.9026 36.181 16.3434 31.7402 21.8214 31.7402C27.2995 31.7402 31.7403 36.181 31.7403 41.6591C31.7403 47.137 27.2995 51.5779 21.8214 51.5779C16.3434 51.5779 11.9026 47.137 11.9026 41.6591Z" fill="#4338CA"/>
</g>
<defs>
<clipPath id="clip0_3025_4105">
<rect width="95.2207" height="95.2207" fill="white"/>
</clipPath>
</defs>
</svg>
