<svg width="71" height="71" viewBox="0 0 71 71" fill="none" xmlns="http://www.w3.org/2000/svg">
<g clip-path="url(#clip0_3032_1116)">
<path fill-rule="evenodd" clip-rule="evenodd" d="M47.59 22.6377C47.59 15.8278 41.9369 10.2898 34.9856 10.2898C28.0342 10.2898 22.3811 15.8278 22.3811 22.6377C22.3811 29.4475 28.0342 34.9855 34.9856 34.9855C41.9369 34.9855 47.59 29.4475 47.59 22.6377ZM59.5138 65.855H53.8922C52.1528 65.855 50.7411 64.4721 50.7411 62.7681C50.7411 61.0641 52.1528 59.6811 53.8922 59.6811H55.244C57.4246 59.6811 59.0348 57.5295 58.2093 55.5507C54.3933 46.401 45.4315 41.1594 34.9856 41.1594C24.5397 41.1594 15.5779 46.401 11.7619 55.5507C10.9363 57.5295 12.5466 59.6811 14.7271 59.6811H16.0789C17.8183 59.6811 19.23 61.0641 19.23 62.7681C19.23 64.4721 17.8183 65.855 16.0789 65.855H10.4573C6.51844 65.855 3.41775 62.3266 4.2528 58.5574C6.5468 48.1884 13.7093 40.5357 23.1437 37.0629C18.8393 33.6704 16.0789 28.472 16.0789 22.6377C16.0789 11.6759 25.797 2.93976 37.2512 4.24555C45.5513 5.19016 52.4269 11.6695 53.6716 19.7666C54.743 26.7462 51.8282 33.1209 46.8274 37.0629C56.2618 40.5357 63.4244 48.1884 65.7184 58.5574C66.5534 62.3266 63.4527 65.855 59.5138 65.855ZM44.8202 51.8526C46.0522 53.0596 46.0522 55.0137 44.8202 56.2207L34.9856 65.855L28.3021 59.3077C27.07 58.1007 27.07 56.1465 28.3021 54.9395C29.531 53.7356 31.5257 53.7356 32.7578 54.9395L34.9856 57.1251L40.3645 51.8526C41.5966 50.6487 43.5912 50.6487 44.8202 51.8526Z" fill="#4338CA"/>
</g>
<defs>
<clipPath id="clip0_3032_1116">
<rect width="61.7391" height="61.7391" fill="white" transform="translate(4.11597 4.11597)"/>
</clipPath>
</defs>
</svg>
