<svg width="183" height="191" viewBox="0 0 183 191" fill="none" xmlns="http://www.w3.org/2000/svg">
<g clip-path="url(#clip0_42_4711)">
<path fill-rule="evenodd" clip-rule="evenodd" d="M91.7397 173.367C132.8 173.367 166.086 140.081 166.086 99.0205C166.086 57.96 132.8 24.6738 91.7397 24.6738C50.6792 24.6738 17.3931 57.96 17.3931 99.0205C17.3931 140.081 50.6792 173.367 91.7397 173.367Z" stroke="#3AD29F" stroke-width="0.500651" stroke-dasharray="3 3"/>
<path fill-rule="evenodd" clip-rule="evenodd" d="M91.7404 189.149C141.511 189.149 181.858 148.802 181.858 99.0317C181.858 49.2614 141.511 8.91455 91.7404 8.91455C41.9701 8.91455 1.62329 49.2614 1.62329 99.0317C1.62329 148.802 41.9701 189.149 91.7404 189.149Z" stroke="#3AD29F" stroke-width="0.500651" stroke-dasharray="3 3"/>
<path d="M152.054 127.731C152.057 117.24 144.074 108.469 133.629 107.487C123.183 106.505 113.705 113.633 111.752 123.942L49.2731 122.247L49.959 132.981C49.959 132.981 41.0499 153.537 87.8732 159.015V179.792H142.004V145.247C148.224 141.605 152.048 134.939 152.054 127.731Z" fill="url(#paint0_linear_42_4711)"/>
<path d="M52.1039 133.428C52.1039 133.428 43.5728 153.114 88.4136 158.366V178.272H140.253V125.556L51.438 123.147L52.1039 133.428Z" fill="#FFCBB4"/>
<path d="M78.012 51.2815C75.1981 55.7218 69.3264 57.0561 64.8699 54.2678L37.0362 35.9265C32.5959 33.1126 31.2616 27.2409 34.0498 22.7844C36.8633 18.3502 42.7275 17.0166 47.1819 19.798L75.0156 38.1394C79.4594 40.95 80.7983 46.8224 78.012 51.2815Z" fill="url(#paint1_linear_42_4711)"/>
<path d="M76.4711 50.284C73.8555 54.4113 68.3977 55.6516 64.2552 53.0601L38.3741 35.9979C34.2467 33.3823 33.0064 27.9245 35.598 23.782C38.2136 19.6547 43.6713 18.4144 47.8138 21.0059L73.69 38.0581C77.8252 40.6724 79.0685 46.1381 76.4711 50.284Z" fill="#FFCBB4"/>
<path d="M130.413 147.867C141.165 147.867 149.881 139.151 149.881 128.399C149.881 117.648 141.165 108.932 130.413 108.932C119.661 108.932 110.945 117.648 110.945 128.399C110.945 139.151 119.661 147.867 130.413 147.867Z" fill="#FFCBB4"/>
<path d="M126.908 0H52.331C50.6374 0 49.2645 1.37291 49.2645 3.06649V142.613C49.2645 144.306 50.6374 145.679 52.331 145.679H126.908C128.602 145.679 129.974 144.306 129.974 142.613V3.06649C129.974 1.37291 128.602 0 126.908 0Z" fill="url(#paint2_linear_42_4711)"/>
<path d="M125.467 1.96777H53.7689C51.8832 1.96777 50.3545 3.49647 50.3545 5.38221V140.298C50.3545 142.183 51.8832 143.712 53.7689 143.712H125.467C127.353 143.712 128.882 142.183 128.882 140.298V5.38221C128.882 3.49647 127.353 1.96777 125.467 1.96777Z" fill="white"/>
<path d="M109.345 5.52148C108.875 8.62753 106.211 10.9268 103.069 10.936H75.949C72.8086 10.9256 70.145 8.6266 69.6758 5.52148H55.3071C54.516 5.52148 53.757 5.83464 53.1974 6.39382C52.6377 6.95301 52.3232 7.71172 52.3232 8.50286V137.17C52.3232 137.961 52.6364 138.72 53.1956 139.28C53.7548 139.84 54.5135 140.154 55.3046 140.154H123.929C124.72 140.154 125.479 139.841 126.039 139.282C126.598 138.722 126.913 137.964 126.913 137.173V8.50536C126.913 7.71422 126.6 6.95525 126.04 6.3956C125.481 5.83594 124.722 5.52148 123.931 5.52148H109.345Z" fill="#E9ECFF"/>
<path d="M97.9776 7.22656H81.4787C81.2022 7.22656 80.978 7.45071 80.978 7.72721V7.81983C80.978 8.09634 81.2022 8.32048 81.4787 8.32048H97.9776C98.2541 8.32048 98.4783 8.09634 98.4783 7.81983V7.72721C98.4783 7.45071 98.2541 7.22656 97.9776 7.22656Z" fill="#DBDBDB"/>
<path d="M102.197 8.46751C102.647 8.46751 103.012 8.10238 103.012 7.65197C103.012 7.20156 102.647 6.83643 102.197 6.83643C101.746 6.83643 101.381 7.20156 101.381 7.65197C101.381 8.10238 101.746 8.46751 102.197 8.46751Z" fill="#DBDBDB"/>
<path d="M142.996 131.83C137.347 133.137 133.469 129.452 132.162 123.805L119.18 75.5994C117.889 69.9301 121.417 64.2817 127.078 62.9554C132.747 61.6638 138.396 65.1919 139.722 70.8532L150.316 120.302C151.623 125.952 148.644 130.523 142.996 131.83Z" fill="url(#paint3_linear_42_4711)"/>
<path d="M138.266 72.0394C137.164 67.2723 132.407 64.3007 127.64 65.4021C122.873 66.5036 119.901 71.261 121.003 76.0281L132.94 127.693C134.041 132.46 138.799 135.432 143.566 134.331C148.333 133.229 151.305 128.472 150.203 123.705L138.266 72.0394Z" fill="#FFCBB4"/>
<path d="M149.798 171.765H75.7013V189.038H149.798V171.765Z" fill="url(#paint4_linear_42_4711)"/>
<path d="M147.795 173.767H77.7041V187.284H147.795V173.767Z" fill="#12743B"/>
<path d="M67.2078 102.999C64.4281 107.386 58.6266 108.705 54.2234 105.95L35.5566 93.8721C31.1691 91.0923 29.8504 85.2909 32.6053 80.8877C35.385 76.5002 41.1865 75.1815 45.5897 77.9364L64.2565 90.0146C68.644 92.7943 69.9627 98.5957 67.2078 102.999Z" fill="url(#paint5_linear_42_4711)"/>
<path d="M62.5232 128.566C59.7187 132.994 53.8644 134.325 49.4212 131.545L37.8586 123.114C33.4308 120.31 32.0998 114.455 34.8798 110.012C37.6843 105.584 43.5385 104.253 47.9818 107.033L59.5443 115.467C63.9706 118.271 65.3014 124.124 62.5232 128.566Z" fill="url(#paint6_linear_42_4711)"/>
<g opacity="0.5">
<path d="M89.6173 95.3625C102.052 95.3625 112.132 85.2825 112.132 72.8483C112.132 60.414 102.052 50.334 89.6173 50.334C77.183 50.334 67.103 60.414 67.103 72.8483C67.103 85.2825 77.183 95.3625 89.6173 95.3625Z" fill="url(#paint7_linear_42_4711)"/>
</g>
<path d="M89.6181 94.0256C101.321 94.0256 110.808 84.5385 110.808 72.8356C110.808 61.1326 101.321 51.6455 89.6181 51.6455C77.9152 51.6455 68.4281 61.1326 68.4281 72.8356C68.4281 84.5385 77.9152 94.0256 89.6181 94.0256Z" fill="#12743B"/>
<path d="M80.4211 70.0161L88.3664 77.3006L99.6235 60.7466L103.599 64.0584L88.3664 83.9242L77.1093 71.3429L80.4211 70.0161Z" fill="white"/>
<path d="M61.5892 127.934C58.9736 132.062 53.5158 133.302 49.3733 130.71L38.5893 122.86C34.4619 120.245 33.2216 114.787 35.8132 110.644C38.4288 106.517 43.8865 105.277 48.029 107.868L58.8106 115.733C62.9297 118.348 64.1701 123.794 61.5892 127.934Z" fill="#FFCBB4"/>
<path d="M66.1817 102.331C63.5661 106.458 58.1083 107.698 53.9658 105.107L36.403 93.742C32.2756 91.1264 31.0353 85.6687 33.6269 81.5262C36.2425 77.3988 41.7003 76.1585 45.8428 78.7501L63.4056 90.1148C67.533 92.7304 68.7733 98.1882 66.1817 102.331Z" fill="#FFCBB4"/>
<path d="M72.0341 77.5514C69.2407 81.9582 63.4131 83.2823 58.9897 80.5153L35.3339 65.1128C30.9272 62.3193 29.603 56.4917 32.3701 52.0683C35.1635 47.6615 40.9911 46.3374 45.4145 49.1045L69.0703 64.507C73.4771 67.3004 74.8012 73.128 72.0341 77.5514Z" fill="url(#paint8_linear_42_4711)"/>
<path d="M70.7783 76.7491C68.1627 80.8765 62.705 82.1168 58.5625 79.5252L36.4062 65.099C32.2788 62.4834 31.0385 57.0256 33.6301 52.8831C36.2457 48.7557 41.7034 47.5154 45.8459 50.107L67.9997 64.5332C72.128 67.148 73.3694 72.606 70.7783 76.7491Z" fill="#FFCBB4"/>
</g>
<defs>
<linearGradient id="paint0_linear_42_4711" x1="100.667" y1="179.804" x2="100.667" y2="107.4" gradientUnits="userSpaceOnUse">
<stop stop-color="#808080" stop-opacity="0.25"/>
<stop offset="0.54" stop-color="#808080" stop-opacity="0.12"/>
<stop offset="1" stop-color="#808080" stop-opacity="0.1"/>
</linearGradient>
<linearGradient id="paint1_linear_42_4711" x1="56.0284" y1="55.7272" x2="56.0284" y2="18.3436" gradientUnits="userSpaceOnUse">
<stop stop-color="#808080" stop-opacity="0.25"/>
<stop offset="0.54" stop-color="#808080" stop-opacity="0.12"/>
<stop offset="1" stop-color="#808080" stop-opacity="0.1"/>
</linearGradient>
<linearGradient id="paint2_linear_42_4711" x1="89.6195" y1="145.677" x2="89.6195" y2="-0.00250075" gradientUnits="userSpaceOnUse">
<stop stop-color="#808080" stop-opacity="0.25"/>
<stop offset="0.54" stop-color="#808080" stop-opacity="0.12"/>
<stop offset="1" stop-color="#808080" stop-opacity="0.1"/>
</linearGradient>
<linearGradient id="paint3_linear_42_4711" x1="134.766" y1="132.09" x2="134.766" y2="62.6851" gradientUnits="userSpaceOnUse">
<stop stop-color="#808080" stop-opacity="0.25"/>
<stop offset="0.54" stop-color="#808080" stop-opacity="0.12"/>
<stop offset="1" stop-color="#808080" stop-opacity="0.1"/>
</linearGradient>
<linearGradient id="paint4_linear_42_4711" x1="112.754" y1="189.033" x2="112.754" y2="171.76" gradientUnits="userSpaceOnUse">
<stop stop-color="#808080" stop-opacity="0.25"/>
<stop offset="0.54" stop-color="#808080" stop-opacity="0.12"/>
<stop offset="1" stop-color="#808080" stop-opacity="0.1"/>
</linearGradient>
<linearGradient id="paint5_linear_42_4711" x1="49.9028" y1="107.39" x2="49.9028" y2="76.4995" gradientUnits="userSpaceOnUse">
<stop stop-color="#808080" stop-opacity="0.25"/>
<stop offset="0.54" stop-color="#808080" stop-opacity="0.12"/>
<stop offset="1" stop-color="#808080" stop-opacity="0.1"/>
</linearGradient>
<linearGradient id="paint6_linear_42_4711" x1="48.7027" y1="132.997" x2="48.7027" y2="105.579" gradientUnits="userSpaceOnUse">
<stop stop-color="#808080" stop-opacity="0.25"/>
<stop offset="0.54" stop-color="#808080" stop-opacity="0.12"/>
<stop offset="1" stop-color="#808080" stop-opacity="0.1"/>
</linearGradient>
<linearGradient id="paint7_linear_42_4711" x1="89.6173" y1="95.3625" x2="89.6173" y2="50.3315" gradientUnits="userSpaceOnUse">
<stop stop-color="#808080" stop-opacity="0.25"/>
<stop offset="0.54" stop-color="#808080" stop-opacity="0.12"/>
<stop offset="1" stop-color="#808080" stop-opacity="0.1"/>
</linearGradient>
<linearGradient id="paint8_linear_42_4711" x1="52.2009" y1="81.9697" x2="52.2009" y2="47.6676" gradientUnits="userSpaceOnUse">
<stop stop-color="#808080" stop-opacity="0.25"/>
<stop offset="0.54" stop-color="#808080" stop-opacity="0.12"/>
<stop offset="1" stop-color="#808080" stop-opacity="0.1"/>
</linearGradient>
<clipPath id="clip0_42_4711">
<rect width="181.865" height="190.021" fill="white" transform="translate(0.807617)"/>
</clipPath>
</defs>
</svg>
